<svg version="1.2" xmlns="http://www.w3.org/2000/svg" viewBox="0 0 2561 194" width="2561" height="194"><style>.a{fill:none;stroke:#fff;stroke-miterlimit:100;stroke-width:2}.b{fill:#fff}</style><path class="a" d="m1 75h2559v100h-2559z"/><path class="a" d="m2479 153h1v20h-1z"/><path class="a" d="m2479 77h1v20h-1z"/><path class="a" d="m2398 153h1v20h-1z"/><path class="a" d="m2398 77h1v20h-1z"/><path class="a" d="m2319 153h1v20h-1z"/><path class="a" d="m2319 77h1v20h-1z"/><path class="a" d="m2239 153h1v20h-1z"/><path class="a" d="m2239 77h1v20h-1z"/><path class="a" d="m2159 153h1v20h-1z"/><path class="a" d="m2159 77h1v20h-1z"/><path class="a" d="m2079 153h1v20h-1z"/><path class="a" d="m2079 77h1v20h-1z"/><path class="a" d="m1999 153h1v20h-1z"/><path class="a" d="m1999 77h1v20h-1z"/><path class="a" d="m1840 153h1v20h-1z"/><path class="a" d="m1840 77h1v20h-1z"/><path class="a" d="m1759 153h1v20h-1z"/><path class="a" d="m1759 77h1v20h-1z"/><path class="a" d="m1680 153h1v20h-1z"/><path class="a" d="m1680 77h1v20h-1z"/><path class="a" d="m1600 153h1v20h-1z"/><path class="a" d="m1600 77h1v20h-1z"/><path class="a" d="m1520 153h1v20h-1z"/><path class="a" d="m1520 77h1v20h-1z"/><path class="a" d="m1440 153h1v20h-1z"/><path class="a" d="m1440 77h1v20h-1z"/><path class="a" d="m1360 153h1v20h-1z"/><path class="a" d="m1360 77h1v20h-1z"/><path class="a" d="m1280 153h1v20h-1z"/><path class="a" d="m1280 77h1v20h-1z"/><path class="a" d="m1200 153h1v20h-1z"/><path class="a" d="m1200 77h1v20h-1z"/><path class="a" d="m1120 153h1v20h-1z"/><path class="a" d="m1120 77h1v20h-1z"/><path class="a" d="m1040 153h1v20h-1z"/><path class="a" d="m1040 77h1v20h-1z"/><path class="a" d="m880 153h1v20h-1z"/><path class="a" d="m880 77h1v20h-1z"/><path class="a" d="m799 153h1v20h-1z"/><path class="a" d="m799 77h1v20h-1z"/><path class="a" d="m720 153h1v20h-1z"/><path class="a" d="m720 77h1v20h-1z"/><path class="a" d="m640 153h1v20h-1z"/><path class="a" d="m640 77h1v20h-1z"/><path class="a" d="m560 153h1v20h-1z"/><path class="a" d="m560 77h1v20h-1z"/><path class="a" d="m480 153h1v20h-1z"/><path class="a" d="m480 77h1v20h-1z"/><path class="a" d="m400 153h1v20h-1z"/><path class="a" d="m400 77h1v20h-1z"/><path class="a" d="m320 153h1v20h-1z"/><path class="a" d="m320 77h1v20h-1z"/><path class="a" d="m240 153h1v20h-1z"/><path class="a" d="m240 77h1v20h-1z"/><path class="a" d="m160 153h1v20h-1z"/><path class="a" d="m160 77h1v20h-1z"/><path class="a" d="m80 153h1v20h-1z"/><path class="a" d="m80 77h1v20h-1z"/><path class="a" d="m1919 75h1v100h-1z"/><path class="a" d="m960 75h1v100h-1z"/><path class="b" d="m2183.3 137.4q-2.9 0-5.1-1.3-2.2-1.4-3.5-3.8-1.3-2.5-1.3-5.7 0-3.1 1.3-5.6 1.3-2.5 3.5-3.8 2.2-1.5 5-1.5 2.8 0 5 1.5 2.3 1.3 3.6 3.8 1.3 2.5 1.3 5.6 0 3.2-1.3 5.6-1.3 2.5-3.6 3.9-2.2 1.3-5 1.3zm0-3.6q1.6 0 2.7-0.9 1.3-0.9 1.9-2.6 0.7-1.6 0.7-3.7 0-2.2-0.7-3.9-0.6-1.6-1.9-2.5-1.1-0.9-2.7-0.9-1.5 0-2.7 0.9-1.2 0.9-1.8 2.5-0.7 1.7-0.7 3.9 0 2.1 0.7 3.7 0.6 1.7 1.8 2.6 1.2 0.9 2.7 0.9zm18.2 10.7h-4.6v-28.3h4.5v3.3q0.6-1.4 1.5-2.2 0.9-0.8 2-1.2 1.2-0.4 2.5-0.4 1.7 0 3.2 0.7 1.5 0.7 2.7 2.1 1.1 1.3 1.8 3.3 0.7 2.1 0.7 4.8 0 2.7-0.7 4.8-0.7 2-2 3.4-1.1 1.4-2.7 2.1-1.5 0.6-3.1 0.6-1.1 0-2.3-0.2-1-0.3-1.9-0.9-0.9-0.7-1.6-1.5zm4.7-10.5q1 0 1.9-0.4 0.9-0.4 1.6-1.2 0.7-0.9 1.1-2.3 0.4-1.5 0.4-3.6 0-2.3-0.5-3.8-0.6-1.6-1.7-2.5-1-0.8-2.5-0.9-1.1 0-2 0.4-1 0.4-1.7 1.4-0.6 0.9-1 2.4-0.3 1.5-0.3 3.6 0 1.4 0.2 2.5 0.2 1.1 0.6 1.9 0.4 0.8 0.9 1.4 0.6 0.5 1.3 0.8 0.8 0.3 1.7 0.3zm23.5 3.5q-2.3 0-4.2-0.8-2-0.8-3.4-2.2-1.4-1.5-2.2-3.4-0.8-2-0.8-4.3 0-2.4 0.8-4.4 0.8-2 2.2-3.5 1.4-1.5 3.4-2.3 1.9-0.8 4.2-0.8 2.8 0 4.9 1 2.1 1 3.4 2.9l-2.6 2.7-0.3 0.4-0.3-0.3q0-0.4-0.2-0.7 0-0.4-0.5-0.9-0.9-0.8-2-1.2-1.1-0.3-2.5-0.3-1.2 0-2.2 0.5-1.1 0.5-1.9 1.4-0.8 1-1.3 2.3-0.5 1.4-0.5 3 0 1.6 0.5 3 0.5 1.3 1.3 2.2 0.9 0.9 2 1.5 1.2 0.5 2.4 0.5 1 0 1.9-0.2 1-0.3 1.8-0.9 0.9-0.5 1.6-1.4l2.5 2.8q-1.6 1.8-3.7 2.6-2.1 0.8-4.3 0.8zm21.1 0q-2.8 0-5-1.4-2.2-1.4-3.5-3.8-1.3-2.5-1.3-5.7 0-3.1 1.3-5.6 1.3-2.4 3.5-3.8 2.2-1.5 5-1.5 2.8 0 5 1.5 2.3 1.4 3.6 3.8 1.3 2.5 1.3 5.6 0 3.2-1.3 5.6-1.3 2.5-3.6 3.9-2.2 1.4-5 1.4zm0-3.7q1.6 0 2.7-0.9 1.3-0.9 1.9-2.5 0.7-1.7 0.7-3.8 0-2.2-0.7-3.8-0.6-1.7-1.9-2.6-1.1-0.9-2.7-0.9-1.5 0-2.7 0.9-1.2 0.9-1.8 2.6-0.7 1.6-0.7 3.8 0 2.1 0.7 3.8 0.6 1.6 1.8 2.5 1.2 0.9 2.7 0.9zm21.6 3.7q-1.7 0-3.3-0.7-1.5-0.7-2.7-2-1.2-1.4-2-3.5-0.6-2.1-0.6-4.8 0-2.8 0.6-4.8 0.8-2.1 2-3.4 1.2-1.3 2.8-1.9 1.5-0.7 3.2-0.7 1.3 0 2.3 0.3 1 0.3 1.8 0.9 0.8 0.7 1.3 1.6v-11.6h4.4 0.4v0.4q-0.3 0.3-0.3 0.6-0.1 0.3-0.1 1.1v25.1q0 0.7 0.1 1.5 0 0.7 0.4 1.4h-4.4q-0.3-0.5-0.4-0.9-0.1-0.4-0.1-0.8 0-0.4 0-0.8-0.6 0.9-1.4 1.6-0.8 0.7-1.8 1.1-1.1 0.3-2.2 0.3zm0.7-3.7q1.2 0 2.1-0.5 0.8-0.5 1.4-1.4 0.5-1 0.8-2.3 0.3-1.4 0.3-3.1 0-2.3-0.5-3.9-0.5-1.6-1.6-2.5-1-0.9-2.7-0.9-1.1 0-2 0.5-0.9 0.5-1.6 1.4-0.5 0.9-0.9 2.2-0.3 1.3-0.3 3 0 2.3 0.7 4 0.6 1.7 1.8 2.6 1.1 0.9 2.5 0.9zm23.7 3.7q-2.3 0-4.1-0.7-1.9-0.7-3.3-2.1-1.4-1.4-2.1-3.4-0.8-2-0.8-4.6 0-2.6 0.8-4.6 0.7-2.1 2-3.5 1.4-1.4 3.1-2.1 1.8-0.8 3.9-0.8 1.7 0 3.3 0.6 1.6 0.6 2.8 1.9 1.2 1.2 1.9 3.1 0.7 1.9 0.7 4.4 0 0.5 0 1.1 0 0.5-0.1 0.9h-14.1q0.1 1.6 0.6 2.8 0.6 1.2 1.4 2 0.8 0.7 1.9 1.1 1.1 0.4 2.3 0.4 1 0 1.9-0.2 0.9-0.2 1.7-0.7 0.8-0.4 1.5-1.2l2.3 2.3q-0.9 1.1-2.1 1.9-1.2 0.7-2.6 1.1-1.3 0.3-2.9 0.3zm-5.9-13.2h9.7q0-1.2-0.3-2.2-0.3-0.9-0.9-1.6-0.6-0.7-1.5-1-0.8-0.3-1.9-0.3-1 0-1.8 0.3-0.8 0.3-1.5 0.9-0.7 0.6-1.2 1.6-0.4 1-0.6 2.3z"/><path class="b" d="m1407.1 137.5q-3.5 0-5.4-1.6-1.9-1.6-1.9-4.2 0-1.7 0.8-3 0.8-1.4 2.2-2.4 1.5-1 3.6-1.5 2-0.6 4.7-0.6 0.5 0 1.1 0 0.6 0 1.3 0.1 0.7 0 1.4 0.1l0.2 3.1q-0.7 0-1.4-0.1-0.7 0-1.3 0-0.7 0-1.3 0-1.8 0-3.1 0.2-1.2 0.3-2.1 0.8-0.8 0.5-1.2 1.2-0.4 0.7-0.4 1.6 0 0.8 0.3 1.4 0.2 0.5 0.7 0.8 0.5 0.4 1.1 0.5 0.7 0.2 1.5 0.2 1.4 0 2.6-0.5 1.1-0.5 1.9-1.5 0.8-0.9 1.2-2.4 0.4-1.5 0.4-3.5 0-2.7-0.7-4.2-0.5-1.6-1.7-2.1-1.2-0.6-2.9-0.6-1.5 0-2.8 0.5-1.3 0.4-2.6 1.7l-2.4-2.7q1.7-1.6 3.8-2.4 2-0.7 4.2-0.7 2 0 3.6 0.5 1.7 0.5 3 1.5 1.3 1.1 2 3 0.7 1.8 0.7 4.6v11.7h-4.7v-2.6q-0.6 0.9-1.3 1.6-0.7 0.6-1.6 0.9-0.8 0.3-1.7 0.5-0.9 0.1-1.8 0.1zm17.9-0.5v-20.8h4.6l-0.1 5.9-0.5-0.5q0.2-1.3 0.8-2.4 0.6-1.1 1.5-1.9 1-0.8 2.1-1.2 1.1-0.4 2.4-0.4 1.7 0 3.1 0.6 1.4 0.5 2.5 1.7l-1.9 3.7-0.2 0.4-0.3-0.2q-0.2-0.3-0.3-0.7-0.2-0.4-0.7-0.9-0.7-0.4-1.3-0.6-0.7-0.2-1.5-0.2-1.1 0-2.1 0.4-1 0.3-1.8 1.1-0.9 0.8-1.3 2.1-0.5 1.2-0.5 3v10.9zm28.9 7.9q-2.2 0-3.9-0.3-1.8-0.4-3-1.1-1.3-0.7-1.9-1.7-0.6-1-0.6-2.3 0-1.2 0.5-2.1 0.6-0.9 1.5-1.6 0.9-0.7 1.9-1.1l2 0.9q-0.7 0.5-1.2 0.9-0.6 0.5-0.9 1-0.3 0.6-0.3 1.3 0 0.7 0.5 1.2 0.4 0.5 1.3 0.8 0.8 0.3 1.9 0.5 1.1 0.2 2.5 0.2 1.9 0 3.1-0.3 1.2-0.4 1.8-1 0.6-0.6 0.6-1.4 0-0.9-0.4-1.3-0.3-0.5-1.3-0.7-1-0.3-2.9-0.3-1.5 0-2.9-0.1-1.4-0.1-2.5-0.4-1.2-0.3-2-0.8-0.9-0.5-1.4-1.3-0.4-0.7-0.4-1.8 0-1.3 0.8-2.4 0.8-1.1 2-2l2 1.2q-0.4 0.5-0.7 0.8-0.3 0.3-0.5 0.6-0.2 0.3-0.2 0.7 0 0.6 0.7 1 0.7 0.4 2.2 0.6 1.5 0.2 4 0.2 2.1 0 3.5 0.4 1.5 0.4 2.3 1.2 0.8 0.8 1.1 1.7 0.4 1 0.4 2.2 0 1.2-0.6 2.4-0.5 1.2-1.7 2.1-1.1 1-2.9 1.6-1.8 0.5-4.4 0.5zm-0.6-14.9q-2.2 0-3.9-1-1.7-1-2.7-2.6-1-1.6-1-3.6 0-2 1-3.7 1-1.6 2.7-2.6 1.7-1 3.9-1 2.3 0 4 1 1.7 1 2.6 2.6 1 1.7 1 3.7 0 2-1 3.6-0.9 1.6-2.6 2.6-1.7 1-4 1zm0-3.4q1.1 0 2-0.5 0.8-0.5 1.3-1.3 0.5-0.9 0.5-2 0-1.1-0.5-2-0.5-0.8-1.4-1.3-0.8-0.5-1.9-0.5-1 0-1.9 0.5-0.8 0.5-1.4 1.3-0.5 0.9-0.5 2 0 1 0.5 1.9 0.5 0.9 1.4 1.4 0.8 0.5 1.9 0.5zm6.4-6.7l-1.8-2.2q1.3-1 2.9-1.6 1.6-0.6 3.4-0.4l0.5 3.2q-1.4-0.2-2.7 0-1.3 0.2-2.3 1zm11.6 12.1l-0.9-2.9 11.9-14.6 1 3zm5.5 5.5q-2.9 0-5-1.7-2.1-1.6-3.2-4.8-1.1-3.3-1.1-7.9 0-4.5 1.1-7.7 1.1-3.3 3.2-5 2.1-1.7 5-1.7 2.8 0 4.9 1.7 2.1 1.7 3.2 5 1.1 3.2 1.1 7.7 0 4.6-1.1 7.9-1.1 3.2-3.2 4.8-2.1 1.7-4.9 1.7zm0-3.5q1.6 0 2.7-1.2 1.1-1.3 1.7-3.8 0.6-2.4 0.6-5.9 0-3.3-0.6-5.8-0.6-2.4-1.7-3.7-1.1-1.3-2.7-1.3-1.7 0-2.8 1.3-1.1 1.3-1.7 3.7-0.6 2.5-0.6 5.8 0 3.5 0.6 5.9 0.6 2.5 1.7 3.8 1.1 1.2 2.8 1.2z"/><path class="b" d="m448.1 137.5q-3.5 0-5.4-1.6-1.9-1.6-1.9-4.2 0-1.7 0.8-3 0.8-1.4 2.2-2.4 1.5-1 3.6-1.5 2-0.6 4.6-0.6 0.6 0 1.2 0 0.6 0 1.3 0.1 0.7 0 1.4 0.1l0.2 3.1q-0.7 0-1.4-0.1-0.7 0-1.3 0-0.7 0-1.3 0-1.8 0-3.1 0.2-1.2 0.3-2.1 0.8-0.8 0.5-1.2 1.2-0.4 0.7-0.4 1.6 0 0.8 0.3 1.4 0.2 0.5 0.7 0.8 0.5 0.4 1.1 0.5 0.7 0.2 1.5 0.2 1.4 0 2.6-0.5 1.1-0.5 1.9-1.5 0.8-0.9 1.2-2.4 0.4-1.5 0.4-3.5 0-2.7-0.7-4.2-0.5-1.6-1.7-2.1-1.2-0.6-2.9-0.6-1.5 0-2.8 0.5-1.3 0.4-2.6 1.7l-2.4-2.7q1.7-1.6 3.8-2.4 2-0.7 4.2-0.7 2 0 3.6 0.5 1.7 0.5 3 1.5 1.3 1.1 2 3 0.7 1.8 0.7 4.6v11.7h-4.7v-2.6q-0.6 0.9-1.3 1.6-0.7 0.6-1.6 0.9-0.8 0.3-1.7 0.5-0.9 0.1-1.8 0.1zm17.9-0.5v-20.8h4.6l-0.1 5.9-0.5-0.5q0.2-1.3 0.8-2.4 0.6-1.1 1.5-1.9 1-0.8 2.1-1.2 1.1-0.4 2.4-0.4 1.7 0 3.1 0.6 1.4 0.5 2.5 1.7l-1.9 3.7-0.2 0.4-0.4-0.2q-0.1-0.3-0.2-0.7-0.2-0.4-0.7-0.9-0.7-0.4-1.3-0.6-0.7-0.2-1.5-0.2-1.1 0-2.1 0.4-1 0.3-1.8 1.1-0.9 0.8-1.4 2.1-0.4 1.2-0.4 3v10.9zm28.9 7.9q-2.2 0-3.9-0.3-1.8-0.4-3-1.1-1.3-0.7-1.9-1.7-0.6-1-0.6-2.3 0-1.2 0.5-2.1 0.6-0.9 1.5-1.6 0.9-0.7 1.9-1.1l2 0.9q-0.7 0.5-1.2 0.9-0.6 0.5-0.9 1-0.3 0.6-0.3 1.3 0 0.7 0.5 1.2 0.4 0.5 1.2 0.8 0.9 0.3 2 0.5 1.1 0.2 2.5 0.2 1.8 0 3.1-0.3 1.2-0.4 1.8-1 0.6-0.6 0.6-1.4 0-0.9-0.4-1.3-0.3-0.5-1.3-0.7-1-0.3-2.9-0.3-1.5 0-2.9-0.1-1.4-0.1-2.5-0.4-1.2-0.3-2-0.8-0.9-0.5-1.4-1.3-0.4-0.7-0.4-1.8 0-1.3 0.8-2.4 0.8-1.1 2-2l2 1.2q-0.4 0.5-0.7 0.8-0.3 0.3-0.5 0.6-0.2 0.3-0.2 0.7 0 0.6 0.7 1 0.7 0.4 2.2 0.6 1.5 0.2 4 0.2 2.1 0 3.5 0.4 1.5 0.4 2.3 1.2 0.8 0.8 1.1 1.7 0.4 1 0.4 2.2 0 1.2-0.6 2.4-0.5 1.2-1.7 2.1-1.1 1-2.9 1.6-1.8 0.5-4.4 0.5zm-0.6-14.9q-2.2 0-3.9-1-1.7-1-2.7-2.6-1-1.6-1-3.6 0-2 1-3.7 1-1.6 2.7-2.6 1.7-1 3.9-1 2.3 0 4 1 1.7 1 2.6 2.6 1 1.7 1 3.7 0 2-1 3.6-0.9 1.6-2.6 2.6-1.7 1-4 1zm0-3.4q1.1 0 2-0.5 0.8-0.5 1.3-1.3 0.5-0.9 0.5-2 0-1.1-0.5-2-0.5-0.8-1.4-1.3-0.8-0.5-1.9-0.5-1 0-1.9 0.5-0.8 0.5-1.4 1.3-0.5 0.9-0.5 2 0 1 0.5 1.9 0.5 0.9 1.4 1.4 0.8 0.5 1.9 0.5zm6.4-6.7l-1.8-2.2q1.3-1 2.9-1.6 1.6-0.6 3.4-0.4l0.5 3.2q-1.4-0.2-2.7 0-1.3 0.2-2.3 1zm20 17.1h-4.5v-23.1l-5.2 1.8-1-2.8 7.4-4h3.3z"/><path class="b" d="m29.7 49.5q-2.4 0-4.7-0.8-2.2-0.8-3.7-2.5l2.5-3.3 0.2-0.4 0.4 0.3q0 0.3 0.1 0.7 0.2 0.3 0.7 0.9 0.8 0.6 1.9 1.1 1 0.4 2.3 0.4 1.6 0 2.6-0.6 1.1-0.6 1.6-1.7 0.6-1.1 0.6-2.5 0-1.5-0.5-2.5-0.5-1-1.5-1.6-1-0.6-2.4-0.8-1.3-0.2-3.2 0v-3.5q2.1 0.1 3.4-0.3 1.4-0.4 2.1-1 0.8-0.7 1-1.5 0.3-0.9 0.3-1.8 0-0.9-0.2-1.6-0.3-0.7-0.8-1.2-0.5-0.5-1.2-0.7-0.7-0.3-1.5-0.3-0.9 0-1.8 0.2-0.9 0.2-1.7 0.7-0.9 0.5-1.6 1.3l-2.5-2.7q1.5-1.7 3.6-2.4 2-0.7 4.1-0.7 2.4 0 4.2 0.9 1.8 0.8 2.8 2.5 1 1.6 1 3.7 0 1.5-0.6 2.8-0.5 1.3-1.5 2.2-1 0.9-2.3 1.3 1.4 0.5 2.6 1.4 1.2 0.9 1.9 2.4 0.8 1.4 0.8 3.3 0 2.3-1.1 4.2-1.1 1.9-3.1 3-2 1.1-4.8 1.1zm25.9-0.5h-4.4v-23.1l-5.3 1.8-1-2.8 7.5-4h3.2z"/><path class="b" d="m106.7 49.5q-2.4 0-4.7-0.8-2.2-0.8-3.7-2.5l2.5-3.3 0.2-0.4 0.4 0.3q0 0.3 0.1 0.7 0.2 0.3 0.7 0.9 0.8 0.6 1.9 1.1 1 0.4 2.3 0.4 1.6 0 2.6-0.6 1.1-0.6 1.6-1.7 0.6-1.1 0.6-2.5 0-1.5-0.5-2.5-0.5-1-1.5-1.6-1-0.6-2.4-0.8-1.3-0.2-3.1 0v-3.5q2 0.1 3.3-0.3 1.4-0.4 2.1-1 0.8-0.7 1-1.5 0.3-0.9 0.3-1.8 0-0.9-0.2-1.6-0.3-0.7-0.8-1.2-0.5-0.5-1.2-0.7-0.7-0.3-1.5-0.3-0.9 0-1.8 0.2-0.9 0.2-1.7 0.7-0.9 0.5-1.6 1.3l-2.5-2.7q1.5-1.7 3.6-2.4 2-0.7 4.1-0.7 2.4 0 4.2 0.9 1.8 0.8 2.8 2.5 1 1.6 1 3.7 0 1.5-0.6 2.8-0.5 1.3-1.5 2.2-1 0.9-2.3 1.3 1.4 0.5 2.6 1.4 1.2 0.9 1.9 2.4 0.8 1.4 0.8 3.3 0 2.3-1.1 4.2-1.1 1.9-3.1 3-2 1.1-4.8 1.1zm17.6-5.5l-1-2.9 12-14.6 0.9 3zm5.5 5.5q-2.9 0-5-1.7-2-1.6-3.2-4.8-1-3.3-1-7.8 0-4.6 1-7.8 1.2-3.3 3.2-5 2.1-1.7 5-1.7 2.9 0 5 1.7 2.1 1.7 3.2 5 1.1 3.2 1.1 7.8 0 4.5-1.1 7.8-1.1 3.2-3.2 4.8-2.1 1.7-5 1.7zm0-3.5q1.7 0 2.8-1.2 1.1-1.3 1.7-3.8 0.6-2.4 0.6-5.8 0-3.4-0.6-5.9-0.6-2.4-1.7-3.7-1.1-1.3-2.8-1.3-1.6 0-2.7 1.3-1.1 1.3-1.7 3.7-0.6 2.5-0.6 5.9 0 3.4 0.6 5.8 0.6 2.5 1.7 3.8 1.1 1.2 2.7 1.2z"/><path class="b" d="m176.8 49v-3.3q2.6-2.6 4.6-4.5 2-2.1 3.5-3.7 1.6-1.6 2.6-3 1.1-1.5 1.6-2.9 0.5-1.4 0.5-2.9 0-1.2-0.3-2-0.3-0.8-0.8-1.3-0.6-0.5-1.4-0.7-0.7-0.3-1.7-0.3-1 0-1.9 0.3-0.9 0.2-1.7 0.7-0.7 0.5-1.4 1.3-0.5 0.7-0.6 1 0 0.3 0 0.6l-0.2 0.4-0.4-0.3-3-2.3q0.9-1.8 2.3-3 1.4-1.2 3.2-1.8 1.7-0.6 3.7-0.6 2.5 0 4.3 0.9 2 1 3.1 2.8 1.1 1.8 1.1 4.3 0 1.8-0.6 3.4-0.5 1.6-1.5 3.2-1.1 1.5-2.5 3.1-1.4 1.6-3.1 3.3-1.7 1.7-3.6 3.6h9.4q0.7 0 1-0.1 0.3-0.1 0.6-0.3h0.4v0.4 3.7zm29.8 0.5q-2.1 0-3.9-0.6-1.9-0.6-3.4-1.9l2.3-3.3 0.3-0.4 0.3 0.3q0.1 0.3 0.3 0.6 0.2 0.3 0.7 0.8 0.7 0.4 1.5 0.7 0.8 0.2 1.7 0.2 1.5 0 2.6-0.9 1.1-0.9 1.8-2.3 0.8-1.5 1.2-3.5 0.4-2 0.4-4.2 0-3.9-0.5-6.2-0.5-2.4-1.6-3.5-1-1.1-2.7-1.1-1 0-1.8 0.5-0.9 0.4-1.5 1.1-0.6 0.8-0.9 1.9-0.3 1-0.3 2.4 0 1.3 0.3 2.2 0.4 0.9 1 1.6 0.6 0.6 1.4 1 0.9 0.3 1.8 0.3 1.3 0 2.3-0.3 1-0.3 1.8-1 0.9-0.7 1.5-1.9l0.5 4q-0.7 0.9-1.7 1.5-0.9 0.6-2.1 1-1.2 0.3-2.6 0.3-1.8 0-3.3-0.6-1.5-0.6-2.7-1.8-1.1-1.1-1.8-2.7-0.6-1.7-0.6-3.7 0-2 0.7-3.7 0.7-1.7 1.8-2.9 1.3-1.4 2.8-2 1.6-0.7 3.5-0.7 2.8 0 4.8 1.5 2 1.5 3 4.3 1 2.8 1 6.8 0 5.3-1.2 8.9-1.1 3.6-3.3 5.4-2.2 1.9-5.4 1.9z"/><path class="b" d="m257.8 49v-3.3q2.6-2.6 4.6-4.5 2-2.1 3.5-3.7 1.6-1.6 2.6-3 1.1-1.5 1.6-2.9 0.5-1.4 0.5-2.9 0-1.2-0.3-2-0.3-0.8-0.8-1.3-0.6-0.5-1.4-0.7-0.7-0.3-1.7-0.3-1 0-1.9 0.3-0.9 0.2-1.7 0.7-0.7 0.5-1.4 1.3-0.5 0.7-0.5 1-0.1 0.3-0.1 0.6l-0.2 0.4-0.4-0.3-3-2.3q0.9-1.8 2.3-3 1.4-1.2 3.2-1.8 1.7-0.6 3.7-0.6 2.5 0 4.3 0.9 2 1 3.1 2.8 1.1 1.8 1.1 4.3 0 1.8-0.5 3.4-0.6 1.6-1.6 3.2-1.1 1.5-2.5 3.1-1.4 1.6-3.1 3.3-1.7 1.7-3.6 3.6h9.4q0.7 0 1-0.1 0.4-0.1 0.6-0.3h0.4v0.4 3.7zm30.9 0.5q-2.7 0-4.8-1-2-1-3.1-2.7-1.1-1.8-1.1-4 0-1.7 0.7-3.2 0.6-1.4 1.9-2.6 1.2-1.1 2.8-1.9-1.2-0.8-2.2-1.7-0.9-1-1.4-2.3-0.5-1.2-0.5-2.5 0-2 0.9-3.5 1-1.7 2.8-2.6 1.8-1 4.3-1 2.6 0 4.3 1 1.8 0.9 2.7 2.4 0.9 1.6 0.9 3.5 0 1-0.3 2-0.3 1-0.8 1.9-0.5 0.9-1.3 1.6-0.7 0.7-1.7 1.2 1.2 0.6 2.1 1.4 1 0.8 1.6 1.8 0.7 1 1 2.1 0.3 1.1 0.3 2.3 0 2.3-1.1 4-1.1 1.8-3.2 2.8-2 1-4.8 1zm0.1-3.8q1.6 0 2.6-0.5 1-0.6 1.5-1.6 0.5-0.9 0.5-2.1 0-1-0.4-1.8-0.3-0.9-1.1-1.6-0.6-0.8-1.7-1.3-1-0.6-2.2-1-0.8 0.4-1.6 1-0.7 0.5-1.2 1.3-0.5 0.7-0.8 1.5-0.3 0.8-0.3 1.8 0 1.2 0.5 2.2 0.6 0.9 1.7 1.5 1 0.6 2.5 0.6zm0.8-13q0.7-0.4 1.3-1 0.5-0.6 0.9-1.2 0.4-0.7 0.6-1.4 0.3-0.7 0.3-1.4 0-1-0.5-1.7-0.4-0.8-1.3-1.3-0.8-0.5-2-0.5-1.2 0-2 0.5-0.9 0.4-1.3 1.2-0.4 0.7-0.4 1.6 0 0.9 0.3 1.7 0.4 0.7 1 1.4 0.6 0.6 1.4 1.1 0.8 0.6 1.7 1z"/><path class="b" d="m337.8 49v-3.3q2.6-2.6 4.6-4.5 2-2.1 3.5-3.7 1.6-1.6 2.6-3 1.1-1.5 1.6-2.9 0.5-1.4 0.5-2.9 0-1.2-0.3-2-0.3-0.8-0.8-1.3-0.6-0.5-1.4-0.7-0.7-0.3-1.7-0.3-1 0-1.9 0.3-0.9 0.2-1.7 0.7-0.7 0.5-1.4 1.3-0.5 0.7-0.5 1-0.1 0.3-0.1 0.6l-0.2 0.4-0.4-0.3-3-2.3q0.9-1.8 2.3-3 1.4-1.2 3.2-1.8 1.7-0.6 3.7-0.6 2.5 0 4.3 0.9 2 1 3.1 2.8 1.1 1.8 1.1 4.3 0 1.8-0.5 3.4-0.6 1.6-1.6 3.2-1.1 1.5-2.5 3.1-1.4 1.6-3.1 3.3-1.7 1.7-3.6 3.6h9.4q0.7 0 1-0.1 0.4-0.1 0.6-0.3h0.4v0.4 3.7zm30.4 0h-4.6q1.3-4.2 2.6-8.2 1.4-4 2.9-8 1.4-3.9 3-7.9h-11.5v-3.9h16.7v2.4q-1.3 3.1-2.5 6.3-1.2 3.1-2.4 6.3-1.1 3.2-2.2 6.4-1 3.2-2 6.6z"/><path class="b" d="m418.8 49v-3.3q2.6-2.6 4.6-4.5 2-2.1 3.5-3.7 1.6-1.6 2.6-3 1.1-1.5 1.6-2.9 0.5-1.4 0.5-2.9 0-1.2-0.3-2-0.3-0.8-0.8-1.3-0.6-0.5-1.4-0.7-0.7-0.3-1.7-0.3-1 0-1.9 0.3-0.9 0.2-1.7 0.7-0.7 0.5-1.4 1.3-0.5 0.7-0.5 1-0.1 0.3-0.1 0.6l-0.2 0.4-0.4-0.3-3-2.3q0.9-1.8 2.3-3 1.4-1.2 3.2-1.8 1.7-0.6 3.7-0.6 2.5 0 4.3 0.9 2 1 3.1 2.8 1.1 1.8 1.1 4.3 0 1.8-0.5 3.4-0.6 1.6-1.6 3.2-1.1 1.5-2.5 3.1-1.4 1.6-3.1 3.3-1.7 1.7-3.6 3.6h9.4q0.7 0 1-0.1 0.4-0.1 0.6-0.3h0.4v0.4 3.7zm31.4 0.5q-2.9 0-5-1.6-2-1.7-3.1-4.7-1-3-1-7 0-5 1.3-8.5 1.3-3.5 3.6-5.3 2.3-1.8 5.3-1.8 1.9 0 3.6 0.6 1.8 0.6 3.2 2.1l-2.5 2.8-0.3 0.3-0.3-0.3q0-0.3-0.2-0.5-0.2-0.3-0.8-0.8-0.3-0.1-0.7-0.2-0.4-0.2-0.8-0.2-0.4-0.1-0.8-0.1-0.7 0-1.6 0.2-0.8 0.2-1.6 0.8-0.7 0.6-1.5 1.6-0.6 1-1.1 2.6-0.4 1.6-0.5 3.9 0.6-0.8 1.5-1.4 0.9-0.6 1.8-1 1.1-0.3 2.1-0.3 1.7 0 3.1 0.6 1.4 0.6 2.5 1.7 1.1 1.2 1.7 2.9 0.6 1.7 0.6 3.9 0 2.8-1.1 5-1.2 2.2-3 3.5-1.9 1.2-4.4 1.2zm0.1-3.6q0.9 0 1.6-0.5 0.8-0.4 1.4-1.2 0.6-0.7 0.9-1.8 0.4-1.1 0.4-2.5 0-1.5-0.5-2.5-0.3-1.1-0.9-1.8-0.6-0.7-1.4-1-0.8-0.4-1.6-0.4-0.7 0-1.4 0.3-0.6 0.2-1.2 0.7-0.6 0.4-1.1 1-0.5 0.6-1 1.4-0.1 1.6 0.2 3.1 0.3 1.5 0.9 2.7 0.7 1.1 1.6 1.8 0.9 0.7 2.1 0.7z"/><path class="b" d="m498.8 49v-3.3q2.6-2.6 4.6-4.5 2-2.1 3.5-3.7 1.6-1.6 2.6-3 1.1-1.5 1.6-2.9 0.5-1.4 0.5-2.9 0-1.2-0.3-2-0.3-0.8-0.8-1.3-0.6-0.5-1.4-0.7-0.7-0.3-1.7-0.3-1 0-1.9 0.3-0.9 0.2-1.7 0.7-0.7 0.5-1.4 1.3-0.5 0.7-0.5 1-0.1 0.3-0.1 0.6l-0.2 0.4-0.4-0.3-3-2.3q0.9-1.8 2.3-3 1.4-1.2 3.2-1.8 1.7-0.6 3.7-0.6 2.5 0 4.3 0.9 2 1 3.1 2.8 1.1 1.8 1.1 4.3 0 1.8-0.5 3.4-0.6 1.6-1.6 3.2-1.1 1.5-2.5 3.1-1.4 1.6-3.1 3.3-1.7 1.7-3.6 3.6h9.4q0.7 0 1-0.1 0.4-0.1 0.6-0.3h0.4v0.4 3.7zm31 0.5q-2.8 0-5.1-1.1-2.3-1.1-3.6-3.3l3.2-2.5 0.3-0.3 0.3 0.3q-0.1 0.3 0.1 0.6 0.1 0.4 0.6 0.9 0.8 0.9 1.8 1.3 1 0.5 2.4 0.5 1.1 0 1.9-0.5 0.9-0.4 1.6-1.2 0.7-0.7 1-1.8 0.4-1 0.4-2.3 0-1.4-0.4-2.4-0.3-1.2-1-1.9-0.7-0.8-1.6-1.2-0.9-0.5-2.1-0.5-0.9 0-1.8 0.3-0.8 0.2-1.6 0.8-0.7 0.5-1.4 1.3l-2.7-0.8 1-14.7h14.7v3.7h-11l-0.4 6.9q0.6-0.4 1.3-0.6 0.7-0.2 1.5-0.3 0.7-0.2 1.4-0.2 1.8 0 3.4 0.7 1.5 0.6 2.6 1.8 1.1 1.2 1.7 3 0.7 1.7 0.7 3.9 0 3-1.3 5.1-1.1 2.2-3.2 3.4-2.1 1.1-4.7 1.1z"/><path class="b" d="m578.8 49v-3.3q2.6-2.6 4.6-4.5 2-2.1 3.5-3.7 1.6-1.6 2.6-3 1.1-1.5 1.6-2.9 0.5-1.4 0.5-2.9 0-1.2-0.3-2-0.3-0.8-0.8-1.3-0.5-0.5-1.4-0.7-0.7-0.3-1.7-0.3-1 0-1.9 0.3-0.9 0.2-1.7 0.7-0.7 0.5-1.4 1.3-0.5 0.7-0.5 1-0.1 0.3-0.1 0.6l-0.2 0.4-0.4-0.3-3-2.3q0.9-1.8 2.3-3 1.4-1.2 3.2-1.8 1.8-0.6 3.7-0.6 2.5 0 4.4 0.9 1.9 1 3 2.8 1.1 1.8 1.1 4.3 0 1.8-0.5 3.4-0.6 1.6-1.6 3.2-1.1 1.5-2.5 3.1-1.3 1.6-3.1 3.3-1.7 1.7-3.6 3.6h9.4q0.7 0 1-0.1 0.4-0.1 0.6-0.3h0.4v0.4 3.7zm37.4 0h-4.4v-6.7h-11.4v-3l12.4-18.4h3.4v17.8h3.6v3.6h-3.6zm-4.3-20.8l-6.9 10.5h6.9z"/><path class="b" d="m655.8 49v-3.3q2.6-2.6 4.6-4.5 2-2.1 3.5-3.7 1.6-1.6 2.6-3 1.1-1.5 1.6-2.9 0.5-1.4 0.5-2.9 0-1.2-0.3-2-0.3-0.8-0.8-1.3-0.5-0.5-1.4-0.7-0.7-0.3-1.7-0.3-1 0-1.9 0.3-0.9 0.2-1.7 0.7-0.7 0.5-1.4 1.3-0.5 0.7-0.5 1-0.1 0.3-0.1 0.6l-0.2 0.4-0.4-0.3-3-2.3q0.9-1.8 2.3-3 1.4-1.2 3.2-1.8 1.8-0.6 3.7-0.6 2.5 0 4.4 0.9 1.9 1 3 2.8 1.1 1.8 1.1 4.3 0 1.8-0.5 3.4-0.6 1.6-1.6 3.2-1.1 1.5-2.5 3.1-1.3 1.6-3.1 3.3-1.7 1.7-3.6 3.6h9.4q0.7 0 1-0.1 0.4-0.1 0.6-0.3h0.4v0.4 3.7zm30.4 0.5q-2.4 0-4.7-0.8-2.2-0.8-3.7-2.5l2.5-3.3 0.2-0.4 0.3 0.3q0.1 0.3 0.2 0.7 0.2 0.3 0.7 0.9 0.8 0.6 1.8 1.1 1.1 0.4 2.4 0.4 1.6 0 2.6-0.6 1.1-0.6 1.6-1.7 0.6-1.1 0.6-2.5 0-1.5-0.5-2.5-0.5-1-1.5-1.6-1-0.6-2.4-0.8-1.4-0.2-3.2 0v-3.5q2.1 0.1 3.4-0.3 1.4-0.4 2.1-1 0.8-0.7 1-1.5 0.3-0.9 0.3-1.8 0-0.9-0.2-1.6-0.3-0.7-0.8-1.2-0.5-0.5-1.2-0.7-0.7-0.3-1.5-0.3-0.9 0-1.8 0.2-0.9 0.2-1.8 0.7-0.8 0.5-1.5 1.3l-2.6-2.7q1.6-1.7 3.6-2.4 2.1-0.7 4.1-0.7 2.5 0 4.3 0.9 1.8 0.8 2.8 2.5 1 1.6 1 3.7 0 1.5-0.6 2.8-0.5 1.3-1.5 2.2-1 0.9-2.3 1.3 1.4 0.5 2.6 1.4 1.2 0.9 1.9 2.4 0.8 1.4 0.8 3.3 0 2.3-1.1 4.2-1.1 1.9-3.1 3-2 1.1-4.8 1.1z"/><path class="b" d="m735.8 49v-3.3q2.6-2.6 4.6-4.5 2-2.1 3.5-3.7 1.6-1.6 2.6-3 1.1-1.5 1.6-2.9 0.5-1.4 0.5-2.9 0-1.2-0.3-2-0.3-0.8-0.8-1.3-0.5-0.5-1.4-0.7-0.7-0.3-1.7-0.3-1 0-1.9 0.3-0.9 0.2-1.7 0.7-0.7 0.5-1.4 1.3-0.5 0.7-0.5 1-0.1 0.3-0.1 0.6l-0.2 0.4-0.4-0.3-3-2.3q0.9-1.8 2.3-3 1.4-1.2 3.2-1.8 1.8-0.6 3.7-0.6 2.5 0 4.4 0.9 1.9 1 3 2.8 1.1 1.8 1.1 4.3 0 1.8-0.5 3.4-0.6 1.6-1.6 3.2-1.1 1.5-2.5 3.1-1.3 1.6-3.1 3.3-1.7 1.7-3.6 3.6h9.4q0.7 0 1-0.1 0.4-0.1 0.6-0.3h0.4v0.4 3.7zm22.5 0v-3.3q2.5-2.6 4.6-4.5 2-2.1 3.5-3.7 1.6-1.6 2.6-3 1.1-1.5 1.6-2.9 0.5-1.4 0.5-2.9 0-1.2-0.3-2-0.3-0.8-0.8-1.3-0.6-0.5-1.4-0.7-0.7-0.3-1.7-0.3-1 0-1.9 0.3-0.9 0.2-1.7 0.7-0.7 0.5-1.4 1.3-0.5 0.7-0.6 1-0.1 0.3 0 0.6l-0.2 0.4-0.4-0.3-3.1-2.3q1-1.8 2.4-3 1.4-1.2 3.2-1.8 1.7-0.6 3.7-0.6 2.4 0 4.3 0.9 2 1 3.1 2.8 1.1 1.8 1.1 4.3 0 1.8-0.6 3.4-0.5 1.6-1.5 3.2-1.1 1.5-2.5 3.1-1.4 1.6-3.1 3.3-1.7 1.7-3.6 3.6h9.3q0.8 0 1.1-0.1 0.3-0.1 0.6-0.3h0.4v0.4 3.7z"/><path class="b" d="m815.8 49v-3.3q2.6-2.6 4.6-4.5 2-2.1 3.5-3.7 1.6-1.6 2.6-3 1.1-1.5 1.6-2.9 0.5-1.4 0.5-2.9 0-1.2-0.3-2-0.3-0.8-0.8-1.3-0.5-0.5-1.4-0.7-0.7-0.3-1.7-0.3-1 0-1.9 0.3-0.9 0.2-1.7 0.7-0.7 0.5-1.4 1.3-0.5 0.7-0.5 1-0.1 0.3-0.1 0.6l-0.2 0.4-0.4-0.3-3-2.3q0.9-1.8 2.3-3 1.4-1.2 3.2-1.8 1.8-0.6 3.7-0.6 2.5 0 4.4 0.9 1.9 1 3 2.8 1.1 1.8 1.1 4.3 0 1.8-0.5 3.4-0.6 1.6-1.6 3.2-1.1 1.5-2.5 3.1-1.3 1.6-3.1 3.3-1.7 1.7-3.6 3.6h9.4q0.7 0 1-0.1 0.4-0.1 0.6-0.3h0.4v0.4 3.7zm33.8 0h-4.4v-23.1l-5.3 1.8-1-2.8 7.5-4h3.2z"/><path class="b" d="m893.8 49v-3.3q2.6-2.6 4.6-4.5 2-2.1 3.5-3.7 1.6-1.6 2.6-3 1.1-1.5 1.6-2.9 0.5-1.4 0.5-2.9 0-1.2-0.3-2-0.3-0.8-0.8-1.3-0.5-0.5-1.4-0.7-0.7-0.3-1.7-0.3-1 0-1.9 0.3-0.9 0.2-1.7 0.7-0.7 0.5-1.4 1.3-0.5 0.7-0.5 1-0.1 0.3-0.1 0.6l-0.2 0.4-0.4-0.3-3-2.3q0.9-1.8 2.3-3 1.4-1.2 3.2-1.8 1.8-0.6 3.7-0.6 2.5 0 4.4 0.9 1.9 1 3 2.8 1.1 1.8 1.1 4.3 0 1.8-0.5 3.4-0.6 1.6-1.6 3.2-1.1 1.5-2.5 3.1-1.3 1.6-3.1 3.3-1.7 1.7-3.6 3.6h9.4q0.7 0 1-0.1 0.4-0.1 0.6-0.3h0.4v0.4 3.7zm25.4-5l-0.9-2.9 12-14.6 0.9 3zm5.5 5.5q-2.9 0-5-1.7-2.1-1.6-3.2-4.8-1.1-3.3-1.1-7.8 0-4.6 1.1-7.8 1.1-3.3 3.2-5 2.1-1.7 5-1.7 2.9 0 5 1.7 2.1 1.7 3.2 5 1.1 3.2 1.1 7.8 0 4.5-1.1 7.8-1.1 3.2-3.2 4.8-2.1 1.7-5 1.7zm0-3.5q1.7 0 2.8-1.2 1.1-1.3 1.7-3.8 0.5-2.4 0.5-5.8 0-3.4-0.5-5.9-0.6-2.4-1.7-3.7-1.1-1.3-2.8-1.3-1.6 0-2.7 1.3-1.2 1.3-1.7 3.7-0.6 2.5-0.6 5.9 0 3.4 0.6 5.8 0.5 2.5 1.7 3.8 1.1 1.2 2.7 1.2z"/><path class="b" d="m988.1 49h-4.4v-23.1l-5.3 1.8-1-2.8 7.5-4h3.2zm18.5 0.5q-2 0-3.9-0.6-1.9-0.6-3.4-1.9l2.3-3.3 0.3-0.3 0.4 0.2q0 0.3 0.2 0.7 0.2 0.3 0.7 0.7 0.7 0.5 1.5 0.7 0.8 0.2 1.7 0.2 1.5 0 2.6-0.9 1.1-0.8 1.9-2.3 0.7-1.5 1.1-3.5 0.4-2 0.4-4.2 0-3.8-0.5-6.2-0.5-2.4-1.5-3.4-1.1-1.1-2.7-1.1-1.1 0-1.9 0.4-0.8 0.4-1.5 1.1-0.6 0.8-0.9 1.9-0.3 1.1-0.3 2.5 0 1.2 0.3 2.1 0.4 1 1 1.6 0.6 0.6 1.5 1 0.8 0.3 1.8 0.3 1.2 0 2.2-0.3 1-0.3 1.9-1 0.8-0.7 1.4-1.8l0.5 3.9q-0.7 0.9-1.7 1.5-0.9 0.6-2.1 1-1.2 0.4-2.6 0.4-1.8 0-3.3-0.7-1.5-0.6-2.7-1.7-1.1-1.2-1.7-2.8-0.7-1.6-0.7-3.7 0-1.9 0.7-3.7 0.7-1.7 1.9-2.9 1.2-1.3 2.7-2 1.7-0.7 3.5-0.7 2.8 0 4.8 1.5 2 1.5 3 4.3 1 2.8 1 6.8 0 5.3-1.1 8.9-1.2 3.6-3.4 5.5-2.2 1.8-5.4 1.8z"/><path class="b" d="m1066.1 49h-4.4v-23.1l-5.3 1.8-1-2.8 7.5-4h3.2zm19.7 0.5q-2.8 0-4.9-1-2-1-3.1-2.7-1.1-1.8-1.1-3.9 0-1.8 0.7-3.2 0.7-1.5 1.9-2.6 1.2-1.2 2.8-2-1.2-0.7-2.2-1.7-0.9-1-1.4-2.2-0.5-1.2-0.5-2.6 0-1.9 1-3.5 0.9-1.6 2.7-2.6 1.8-1 4.3-1 2.6 0 4.3 1 1.8 0.9 2.7 2.5 0.9 1.5 0.9 3.4 0 1.1-0.3 2-0.2 1-0.8 1.9-0.5 0.9-1.3 1.6-0.7 0.7-1.7 1.3 1.2 0.5 2.1 1.3 1 0.8 1.6 1.8 0.7 1 1 2.1 0.3 1.1 0.3 2.3 0 2.3-1.1 4-1.1 1.8-3.2 2.8-2 1-4.7 1zm0-3.8q1.6 0 2.6-0.5 1-0.6 1.5-1.5 0.5-1 0.5-2.2 0-0.9-0.4-1.8-0.3-0.8-1.1-1.6-0.6-0.7-1.7-1.3-1-0.6-2.2-1-0.8 0.4-1.5 1-0.8 0.6-1.3 1.3-0.5 0.7-0.8 1.5-0.3 0.8-0.3 1.8 0 1.2 0.6 2.2 0.5 1 1.6 1.6 1.1 0.5 2.5 0.5zm0.8-13q0.7-0.4 1.3-1 0.6-0.6 1-1.2 0.4-0.6 0.5-1.4 0.3-0.7 0.3-1.4 0-1-0.5-1.7-0.4-0.8-1.2-1.3-0.9-0.5-2.1-0.5-1.2 0-2 0.5-0.8 0.4-1.3 1.2-0.4 0.8-0.4 1.7 0 0.9 0.4 1.6 0.3 0.7 0.9 1.4 0.6 0.6 1.4 1.1 0.8 0.6 1.7 1z"/><path class="b" d="m1147.1 49h-4.4v-23.1l-5.3 1.8-1-2.8 7.5-4h3.2zm19.1 0h-4.6q1.3-4.2 2.6-8.2 1.4-4 2.9-7.9 1.5-4 3-8h-11.4v-3.9h16.6v2.4q-1.3 3.2-2.5 6.3-1.2 3.1-2.4 6.3-1.1 3.2-2.2 6.5-1 3.1-2 6.5z"/><path class="b" d="m1227.1 49h-4.4v-23.1l-5.3 1.8-1-2.8 7.5-4h3.2zm20.1 0.5q-2.9 0-5-1.6-2-1.7-3.1-4.7-1-3-1-7 0-5 1.3-8.5 1.3-3.4 3.6-5.3 2.3-1.8 5.3-1.8 1.9 0 3.6 0.6 1.8 0.6 3.2 2.1l-2.5 2.8-0.3 0.3-0.2-0.2q-0.1-0.4-0.3-0.6-0.2-0.3-0.8-0.7-0.3-0.2-0.7-0.3-0.4-0.1-0.8-0.2-0.4-0.1-0.8-0.1-0.7 0-1.5 0.2-0.9 0.3-1.7 0.9-0.7 0.5-1.4 1.5-0.7 1-1.2 2.6-0.4 1.7-0.5 4 0.6-0.9 1.5-1.5 0.9-0.6 1.9-0.9 1-0.4 2-0.4 1.7 0 3.1 0.6 1.4 0.6 2.5 1.7 1.1 1.2 1.7 2.9 0.6 1.7 0.6 3.9 0 2.8-1.1 5-1.1 2.2-3 3.5-1.9 1.2-4.4 1.2zm0.1-3.6q0.9 0 1.7-0.4 0.7-0.5 1.3-1.2 0.6-0.8 0.9-1.9 0.4-1.1 0.4-2.5 0-1.5-0.4-2.5-0.4-1.1-1-1.7-0.6-0.8-1.4-1.1-0.7-0.3-1.6-0.3-0.7 0-1.4 0.2-0.6 0.3-1.2 0.7-0.6 0.5-1.1 1-0.5 0.6-1 1.4-0.1 1.6 0.2 3.1 0.3 1.5 0.9 2.7 0.7 1.1 1.6 1.8 0.9 0.7 2.1 0.7z"/><path class="b" d="m1307.1 49h-4.4v-23.1l-5.3 1.8-1-2.8 7.5-4h3.2zm19.7 0.5q-2.8 0-5.1-1.1-2.3-1.1-3.6-3.3l3.2-2.5 0.3-0.3 0.3 0.3q-0.1 0.3 0.1 0.7 0.2 0.3 0.6 0.9 0.8 0.8 1.8 1.3 1 0.4 2.4 0.4 1.1 0 1.9-0.4 0.9-0.5 1.6-1.2 0.7-0.8 1-1.8 0.4-1.1 0.4-2.4 0-1.3-0.4-2.4-0.3-1.1-1-1.9-0.7-0.8-1.6-1.2-0.9-0.4-2-0.4-1 0-1.9 0.2-0.8 0.3-1.6 0.8-0.7 0.5-1.4 1.3l-2.7-0.8 1-14.7h14.8l-0.1 3.7h-11l-0.4 6.9q0.7-0.4 1.3-0.6 0.7-0.2 1.5-0.3 0.7-0.1 1.4-0.1 1.9 0 3.4 0.6 1.5 0.6 2.6 1.8 1.2 1.2 1.7 3 0.7 1.7 0.7 3.9 0 3-1.2 5.2-1.2 2.1-3.3 3.3-2 1.1-4.7 1.1z"/><path class="b" d="m1385.1 49h-4.4v-23.1l-5.3 1.8-1-2.8 7.5-4h3.2zm26.1 0h-4.4v-6.7h-11.4v-3l12.4-18.4h3.4v17.8h3.6v3.7h-3.6zm-4.3-20.9l-6.9 10.6h6.9z"/><path class="b" d="m1467.1 49h-4.4v-23.1l-5.3 1.8-1-2.8 7.5-4h3.2zm19.1 0.5q-2.4 0-4.7-0.8-2.2-0.8-3.7-2.5l2.5-3.3 0.2-0.4 0.4 0.3q0 0.3 0.1 0.7 0.2 0.3 0.7 0.9 0.8 0.7 1.9 1.1 1 0.4 2.3 0.4 1.6 0 2.7-0.6 1-0.6 1.5-1.7 0.6-1.1 0.6-2.5 0-1.5-0.5-2.5-0.5-1-1.5-1.6-1-0.6-2.4-0.8-1.3-0.1-3.1 0v-3.5q2 0.1 3.3-0.3 1.4-0.3 2.1-1 0.8-0.6 1-1.5 0.3-0.9 0.3-1.8 0-0.9-0.2-1.5-0.3-0.8-0.8-1.2-0.5-0.5-1.2-0.8-0.7-0.3-1.5-0.3-0.9 0-1.8 0.2-0.9 0.3-1.7 0.8-0.9 0.4-1.6 1.2l-2.5-2.6q1.5-1.8 3.6-2.5 2-0.7 4.1-0.7 2.4 0 4.2 0.9 1.8 0.9 2.8 2.5 1 1.6 1 3.7 0 1.5-0.6 2.8-0.5 1.3-1.5 2.2-1 0.9-2.3 1.3 1.4 0.5 2.6 1.4 1.2 1 1.9 2.4 0.8 1.4 0.8 3.3 0 2.3-1.1 4.2-1.1 1.9-3.1 3-2 1.1-4.8 1.1z"/><path class="b" d="m1547.1 49h-4.4v-23.1l-5.3 1.8-1-2.8 7.5-4h3.2zm11.2 0v-3.3q2.6-2.5 4.6-4.5 2-2 3.5-3.7 1.6-1.6 2.6-3 1.1-1.5 1.6-2.8 0.5-1.4 0.5-3 0-1.1-0.3-2-0.3-0.8-0.8-1.3-0.5-0.5-1.4-0.7-0.7-0.3-1.7-0.3-1 0-1.9 0.3-0.9 0.2-1.7 0.7-0.7 0.5-1.4 1.3-0.5 0.7-0.5 1-0.1 0.3-0.1 0.7l-0.2 0.3-0.4-0.2-3-2.4q0.9-1.8 2.3-3 1.4-1.2 3.2-1.8 1.8-0.6 3.7-0.6 2.5 0 4.4 1 1.9 1 3 2.8 1.1 1.8 1.1 4.2 0 1.8-0.6 3.4-0.5 1.6-1.5 3.2-1.1 1.5-2.5 3.1-1.3 1.6-3.1 3.3-1.7 1.7-3.6 3.6h9.4q0.7 0 1-0.1 0.3 0 0.6-0.3h0.4v0.4 3.7z"/><path class="b" d="m1627.1 49h-4.4v-23.1l-5.3 1.8-1-2.8 7.5-4h3.2zm22.5 0h-4.4v-23.1l-5.3 1.8-1-2.8 7.5-4h3.2z"/><path class="b" d="m1708.1 49h-4.4v-23.1l-5.3 1.8-1-2.8 7.5-4h3.2zm14.2-5l-1-2.9 12-14.5 0.9 2.9zm5.5 5.5q-2.9 0-5-1.6-2-1.7-3.2-4.9-1-3.2-1-7.8 0-4.6 1-7.8 1.2-3.3 3.2-5 2.1-1.7 5-1.7 2.9 0 5 1.7 2.1 1.7 3.2 5 1.1 3.2 1.1 7.8 0 4.6-1.1 7.8-1.1 3.2-3.2 4.9-2.1 1.6-5 1.6zm0-3.4q1.7 0 2.8-1.3 1.1-1.3 1.7-3.7 0.6-2.5 0.6-5.9 0-3.4-0.6-5.8-0.6-2.5-1.7-3.8-1.1-1.3-2.8-1.3-1.6 0-2.7 1.3-1.1 1.3-1.7 3.8-0.6 2.4-0.6 5.8 0 3.4 0.6 5.9 0.6 2.4 1.7 3.7 1.1 1.3 2.7 1.3z"/><path class="b" d="m1797.1 49.5q-2 0-3.9-0.6-1.9-0.6-3.4-1.9l2.3-3.3 0.3-0.4 0.4 0.3q0 0.3 0.2 0.6 0.2 0.3 0.8 0.8 0.6 0.4 1.4 0.7 0.8 0.2 1.7 0.2 1.5 0 2.6-0.9 1.1-0.9 1.9-2.3 0.7-1.5 1.1-3.5 0.4-2 0.4-4.2 0-3.9-0.5-6.2-0.5-2.4-1.5-3.5-1.1-1.1-2.7-1.1-1.1 0.1-1.9 0.5-0.8 0.4-1.5 1.1-0.6 0.8-0.9 1.9-0.3 1.1-0.3 2.4 0 1.3 0.3 2.2 0.4 0.9 1 1.6 0.7 0.6 1.5 1 0.8 0.3 1.8 0.3 1.2 0 2.2-0.3 1-0.3 1.9-1 0.8-0.7 1.4-1.9l0.5 4q-0.7 0.9-1.7 1.5-0.9 0.6-2.1 1-1.2 0.3-2.6 0.3-1.8 0-3.3-0.6-1.5-0.6-2.7-1.8-1.1-1.1-1.7-2.7-0.7-1.7-0.7-3.7 0-2 0.7-3.7 0.7-1.7 1.9-2.9 1.2-1.4 2.7-2 1.7-0.7 3.5-0.7 2.8 0 4.8 1.5 2 1.5 3 4.3 1 2.8 1 6.8 0 5.3-1.1 8.9-1.2 3.6-3.4 5.4-2.2 1.9-5.4 1.9z"/><path class="b" d="m1875.3 49.5q-2.8 0-4.9-1-2-1-3.1-2.7-1.1-1.8-1.1-4 0-1.7 0.7-3.2 0.7-1.4 1.9-2.6 1.2-1.1 2.8-1.9-1.2-0.8-2.2-1.7-0.9-1-1.4-2.3-0.5-1.2-0.5-2.5 0-2 1-3.5 0.9-1.7 2.7-2.6 1.8-1 4.3-1 2.6 0 4.3 1 1.8 0.9 2.7 2.4 0.9 1.6 0.9 3.5 0 1-0.3 2-0.2 1-0.8 1.9-0.5 0.9-1.3 1.6-0.7 0.7-1.7 1.2 1.2 0.6 2.1 1.4 1 0.8 1.6 1.8 0.7 1 1 2.1 0.3 1.1 0.3 2.3 0 2.3-1.1 4-1.1 1.8-3.2 2.8-2 1-4.7 1zm0-3.8q1.6 0 2.6-0.5 1-0.6 1.5-1.6 0.5-0.9 0.5-2.1 0-1-0.4-1.8-0.3-0.9-1.1-1.6-0.6-0.8-1.7-1.3-1-0.6-2.2-1-0.8 0.4-1.5 1-0.8 0.5-1.3 1.3-0.5 0.7-0.8 1.5-0.3 0.8-0.3 1.8 0 1.2 0.6 2.2 0.5 0.9 1.6 1.5 1.1 0.6 2.5 0.6zm0.8-13q0.7-0.4 1.3-1 0.6-0.6 1-1.2 0.4-0.7 0.5-1.4 0.3-0.7 0.3-1.4 0-1-0.5-1.7-0.4-0.8-1.2-1.3-0.9-0.5-2.1-0.5-1.2 0-2 0.5-0.8 0.4-1.3 1.2-0.4 0.7-0.4 1.6 0 0.9 0.4 1.7 0.3 0.7 0.9 1.4 0.6 0.6 1.4 1.1 0.8 0.6 1.7 1z"/><path class="b" d="m1955.7 49h-4.6q1.3-4.2 2.6-8.2 1.4-4 2.9-8 1.4-3.9 3-7.9h-11.4v-3.9h16.6v2.4q-1.3 3.1-2.5 6.3-1.2 3.1-2.4 6.3-1.1 3.2-2.2 6.4-1 3.2-2 6.6z"/><path class="b" d="m2033.7 49.5q-2.9 0-5-1.6-2-1.7-3.1-4.7-1-3-1-7 0-5 1.3-8.5 1.3-3.4 3.6-5.3 2.3-1.8 5.3-1.8 1.9 0 3.6 0.6 1.8 0.6 3.2 2.1l-2.5 2.8-0.3 0.3-0.2-0.3q-0.1-0.3-0.3-0.5-0.2-0.3-0.8-0.8-0.3-0.1-0.7-0.2-0.4-0.2-0.8-0.2-0.4-0.1-0.8-0.1-0.7 0-1.5 0.2-0.9 0.2-1.7 0.8-0.7 0.6-1.5 1.6-0.6 1-1.1 2.6-0.4 1.6-0.5 3.9 0.6-0.8 1.5-1.4 0.9-0.6 1.9-1 1-0.3 2-0.3 1.7 0 3.1 0.6 1.4 0.6 2.5 1.7 1.1 1.2 1.7 2.9 0.6 1.7 0.6 3.9 0 2.8-1.1 5-1.1 2.2-3 3.5-1.9 1.2-4.4 1.2zm0.1-3.6q0.9 0 1.7-0.5 0.7-0.4 1.3-1.2 0.6-0.7 0.9-1.8 0.4-1.1 0.4-2.5 0-1.5-0.4-2.5-0.4-1.1-1-1.8-0.6-0.7-1.4-1-0.7-0.4-1.6-0.4-0.7 0-1.4 0.3-0.6 0.2-1.2 0.7-0.6 0.4-1.1 1-0.5 0.6-1 1.4-0.1 1.6 0.2 3.1 0.3 1.5 0.9 2.7 0.7 1.1 1.6 1.8 0.9 0.7 2.1 0.7z"/><path class="b" d="m2118.3 49.5q-2.8 0-5.1-1.1-2.3-1.1-3.6-3.3l3.2-2.5 0.3-0.3 0.3 0.3q-0.1 0.3 0.1 0.6 0.2 0.4 0.6 0.9 0.8 0.9 1.8 1.3 1 0.5 2.4 0.5 1.1 0 1.9-0.5 0.9-0.4 1.6-1.2 0.7-0.7 1-1.8 0.4-1 0.4-2.3 0-1.4-0.4-2.4-0.3-1.2-1-1.9-0.7-0.8-1.6-1.2-0.9-0.5-2-0.5-1 0-1.9 0.3-0.8 0.2-1.6 0.8-0.7 0.5-1.4 1.3l-2.7-0.8 1-14.7h14.7v3.7h-11l-0.4 6.9q0.7-0.4 1.3-0.6 0.7-0.2 1.5-0.3 0.7-0.2 1.4-0.2 1.8 0 3.4 0.7 1.5 0.6 2.6 1.8 1.2 1.2 1.7 3 0.7 1.7 0.7 3.9 0 3-1.2 5.1-1.2 2.2-3.3 3.4-2.1 1.1-4.7 1.1z"/><path class="b" d="m2201.7 49h-4.4v-6.7h-11.4v-3l12.4-18.4h3.4v17.8h3.6v3.6h-3.6zm-4.3-20.8l-6.9 10.5h6.9z"/><path class="b" d="m2275.7 49.5q-2.4 0-4.7-0.8-2.2-0.8-3.7-2.5l2.5-3.3 0.2-0.4 0.4 0.3q0 0.3 0.1 0.7 0.2 0.3 0.7 0.9 0.8 0.6 1.9 1.1 1 0.4 2.3 0.4 1.6 0 2.7-0.6 1-0.6 1.5-1.7 0.6-1.1 0.6-2.5 0-1.5-0.5-2.5-0.5-1-1.5-1.6-1-0.6-2.4-0.8-1.3-0.2-3.1 0v-3.5q2 0.1 3.3-0.3 1.4-0.4 2.1-1 0.8-0.7 1-1.5 0.3-0.9 0.3-1.8 0-0.9-0.2-1.6-0.3-0.7-0.8-1.2-0.5-0.5-1.2-0.7-0.7-0.3-1.5-0.3-0.9 0-1.8 0.2-0.9 0.2-1.7 0.7-0.9 0.5-1.6 1.3l-2.5-2.7q1.5-1.7 3.6-2.4 2-0.7 4.1-0.7 2.4 0 4.2 0.9 1.8 0.8 2.8 2.5 1 1.6 1 3.7 0 1.5-0.6 2.8-0.5 1.3-1.5 2.2-1 0.9-2.3 1.3 1.4 0.5 2.6 1.4 1.2 0.9 1.9 2.4 0.8 1.4 0.8 3.3 0 2.3-1.1 4.2-1.1 1.9-3.1 3-2 1.1-4.8 1.1z"/><path class="b" d="m2344.8 49v-3.3q2.6-2.6 4.6-4.5 2-2.1 3.5-3.7 1.6-1.6 2.6-3 1.1-1.5 1.6-2.9 0.5-1.4 0.5-2.9 0-1.2-0.3-2-0.3-0.8-0.8-1.3-0.6-0.5-1.4-0.7-0.7-0.3-1.7-0.3-1 0-1.9 0.3-0.9 0.2-1.7 0.7-0.7 0.5-1.4 1.3-0.5 0.7-0.6 1 0 0.3 0 0.6l-0.2 0.4-0.4-0.3-3-2.3q0.9-1.8 2.3-3 1.4-1.2 3.2-1.8 1.7-0.6 3.7-0.6 2.5 0 4.3 0.9 2 1 3.1 2.8 1.1 1.8 1.1 4.3 0 1.8-0.6 3.4-0.5 1.6-1.5 3.2-1.1 1.5-2.5 3.1-1.4 1.6-3.1 3.3-1.7 1.7-3.6 3.6h9.4q0.7 0 1-0.1 0.3-0.1 0.6-0.3h0.4v0.4 3.7z"/><path class="b" d="m2443.1 49h-4.4v-23.1l-5.3 1.8-1-2.8 7.5-4h3.2z"/><path class="b" d="m2511.8 44l-1-2.9 12-14.6 0.9 3zm5.5 5.5q-2.9 0-5-1.7-2-1.6-3.2-4.8-1.1-3.3-1.1-7.8 0-4.6 1.1-7.8 1.2-3.3 3.2-5 2.1-1.7 5-1.7 2.9 0 5 1.7 2.1 1.7 3.2 5 1.1 3.2 1.1 7.8 0 4.5-1.1 7.8-1.1 3.2-3.2 4.8-2.1 1.7-5 1.7zm0-3.5q1.7 0 2.8-1.2 1.1-1.3 1.7-3.8 0.6-2.4 0.6-5.8 0-3.4-0.6-5.9-0.6-2.4-1.7-3.7-1.1-1.3-2.8-1.3-1.6 0-2.7 1.3-1.2 1.3-1.7 3.7-0.6 2.5-0.6 5.9 0 3.4 0.6 5.8 0.5 2.5 1.7 3.8 1.1 1.2 2.7 1.2z"/></svg>