<svg version="1.2" baseProfile="tiny-ps" xmlns="http://www.w3.org/2000/svg" viewBox="0 0 32 32" width="32" height="32"><title>warning-svg</title><style>tspan { white-space:pre }.shp0 { fill: #ffa52f } </style><path fill-rule="evenodd" class="shp0" d="M16 0L32 28L0 28L16 0ZM16 4L4 26L28 26L16 4ZM14 10L18 10L17 20L15 20L14 10ZM17.41 21.59C17.79 21.96 18 22.47 18 23C18 23.53 17.79 24.04 17.41 24.41C17.04 24.79 16.53 25 16 25C15.47 25 14.96 24.79 14.59 24.41C14.21 24.04 14 23.53 14 23C14 22.47 14.21 21.96 14.59 21.59C14.96 21.21 15.47 21 16 21C16.53 21 17.04 21.21 17.41 21.59Z" /></svg>